HIERARCHY
ROOT RootJoint
{
    OFFSET   0.000000   0.000000   0.000000
    CHANNELS 6 Xposition Yposition Zposition Xrotation Yrotation Zrotation
    JOINT pelvis_lowerback
    {
        OFFSET   0.000000   0.093605   0.000000
        CHANNELS 3 Xrotation Yrotation Zrotation
        JOINT lowerback_torso
        {
            OFFSET   0.000000   0.100000   0.000000
            CHANNELS 3 Xrotation Yrotation Zrotation
            JOINT torso_head
            {
                OFFSET   0.000000   0.282350   0.000000
                CHANNELS 3 Xrotation Yrotation Zrotation
                End Site
                {
                    OFFSET   0.000000   0.192650   0.000000
                }
            }
            JOINT rTorso_Clavicle
            {
                OFFSET  -0.001000   0.157500   0.000000
                CHANNELS 3 Xrotation Yrotation Zrotation
                JOINT rShoulder
                {
                    OFFSET  -0.117647   0.000000   0.000000
                    CHANNELS 3 Xrotation Yrotation Zrotation
                    JOINT rElbow
                    {
                        OFFSET  -0.245000   0.000000   0.000000
                        CHANNELS 3 Xrotation Yrotation Zrotation
                        JOINT rWrist
                        {
                            OFFSET  -0.240000   0.000000   0.000000
                            CHANNELS 3 Xrotation Yrotation Zrotation
                            End Site
                            {
                                OFFSET  -0.116353  -0.002500   0.000000
                            }
                        }
                    }
                }
            }
            JOINT lTorso_Clavicle
            {
                OFFSET   0.001000   0.157500   0.000000
                CHANNELS 3 Xrotation Yrotation Zrotation
                JOINT lShoulder
                {
                    OFFSET   0.117647   0.000000   0.000000
                    CHANNELS 3 Xrotation Yrotation Zrotation
                    JOINT lElbow
                    {
                        OFFSET   0.245000   0.000000   0.000000
                        CHANNELS 3 Xrotation Yrotation Zrotation
                        JOINT lWrist
                        {
                            OFFSET   0.240000   0.000000   0.000000
                            CHANNELS 3 Xrotation Yrotation Zrotation
                            End Site
                            {
                                OFFSET   0.116353  -0.002500   0.000000
                            }
                        }
                    }
                }
            }
        }
    }
    JOINT rHip
    {
        OFFSET  -0.100000  -0.051395   0.000000
        CHANNELS 3 Xrotation Yrotation Zrotation
        JOINT rKnee
        {
            OFFSET   0.000000  -0.410000   0.000000
            CHANNELS 3 Xrotation Yrotation Zrotation
            JOINT rAnkle
            {
                OFFSET   0.000000  -0.390000   0.000000
                CHANNELS 3 Xrotation Yrotation Zrotation
                JOINT rToeJoint
                {
                    OFFSET   0.000000  -0.050000   0.130000
                    CHANNELS 3 Xrotation Yrotation Zrotation
                    End Site
                    {
                        OFFSET  -0.010000   0.002000   0.060000
                    }
                }
            }
        }
    }
    JOINT lHip
    {
        OFFSET   0.100000  -0.051395   0.000000
        CHANNELS 3 Xrotation Yrotation Zrotation
        JOINT lKnee
        {
            OFFSET   0.000000  -0.410000   0.000000
            CHANNELS 3 Xrotation Yrotation Zrotation
            JOINT lAnkle
            {
                OFFSET   0.000000  -0.390000   0.000000
                CHANNELS 3 Xrotation Yrotation Zrotation
                JOINT lToeJoint
                {
                    OFFSET   0.000000  -0.050000   0.130000
                    CHANNELS 3 Xrotation Yrotation Zrotation
                    End Site
                    {
                        OFFSET   0.010000   0.002000   0.060000
                    }
                }
            }
        }
    }
}
MOTION
Frames: 12
Frame Time:   0.008333
 -2.355416   0.921733   4.001314   2.331558  -1.609121  -2.079511  10.367308   0.606411   0.874813   1.773120  -1.059773  -0.449943  -7.344828  -1.385604   0.224607   0.659219   0.809207  -5.747172   9.385014   8.688319  61.006448  -0.039196  28.393318   0.030313   2.491353   1.943188   2.358149   6.877936   1.333862   6.625551  11.979491 -11.413029 -54.964383  -0.022071 -26.331168  -0.014891   0.862541  -5.368505  -4.377969 -23.946102  -1.442170  -5.437127  47.884874   0.005597   0.013443  -3.657341  -6.293429   7.141984  -2.619193  -0.013013  -0.003770 -27.602594   1.827128   7.371598  51.832162   0.004117   0.008003  17.235127   7.049413  -0.399786 -45.172476  -0.005759   0.001421
 -2.356686   0.936241   4.005655   2.270496  -1.799522  -4.081266   8.866785   0.740864   3.146468   1.857975  -1.235676  -0.284732  -6.678935  -1.461021  -0.435647   1.615164   1.008860  -7.547565   8.864008   9.001487  61.314993  -0.049891  29.877422   0.033574   2.422860   1.613860   2.801943   7.355627   1.968654   7.472973  12.117819 -11.452748 -55.691202  -0.035732 -28.145601  -0.025995   0.769169  -5.439468  -4.559828 -22.978164  -2.453881  -3.204926  47.677971   0.005204   0.010791  -2.454624  -6.473295   7.540367  -1.983110  -0.013781  -0.005568 -26.146880   1.419001   9.492022  48.854242   0.005569  -0.000953  20.283976   6.877969  -0.971517 -45.137988  -0.004561   0.001240
 -2.357961   0.951051   4.010332   2.198730  -2.038111  -6.172708   7.316062   0.831350   5.521529   1.884526  -1.360258   0.052594  -6.040654  -1.541597  -1.036771   2.508921   1.155704  -9.398616   8.384916   9.272801  61.482442  -0.058814  31.275484   0.037070   2.367469   1.388193   3.138755   7.827728   2.650260   8.323708  12.293031 -11.466098 -56.372945  -0.051060 -29.863197  -0.038372   0.652921  -5.782962  -4.813393 -22.006518  -3.479657  -0.784912  47.835664   0.003418   0.008594  -1.335106  -6.630133   7.919278  -1.508402  -0.013803  -0.006515 -24.552981   1.045797  11.699644  45.635287   0.009163  -0.005669  23.520219   6.761251  -1.501467 -45.110396  -0.003634   0.001051
 -2.359086   0.965855   4.015243   2.165044  -2.332397  -8.202280   5.716753   0.867178   7.871642   1.823213  -1.444698   0.468313  -5.453380  -1.623784  -1.576256   3.341471   1.253281 -11.222696   7.943282   9.509580  61.573991  -0.065266  32.581172   0.040406   2.317054   1.191175   3.346569   8.281505   3.343913   9.189580  12.496371 -11.449983 -56.970668  -0.066447 -31.457933  -0.050660   0.537910  -6.130668  -5.033565 -21.041071  -4.437985   1.619440  48.105442   0.001345   0.006690  -0.285554  -6.767528   8.277148  -1.079999  -0.013636  -0.007211 -22.869220   0.754029  13.838231  42.157611   0.014583  -0.005065  27.000802   6.662051  -1.993136 -45.088322  -0.002908   0.000857
 -2.360017   0.980394   4.020253   2.176750  -2.670707 -10.134204   4.100586   0.841237  10.162335   1.679955  -1.500898   0.931964  -4.918896  -1.705428  -2.066282   4.112523   1.314673 -12.988550   7.529999   9.721782  61.618807  -0.069302  33.802480   0.043211   2.269697   1.016891   3.462503   8.706177   4.031333  10.068040  12.713393 -11.411396 -57.483530  -0.080720 -32.938394  -0.061912   0.429962  -6.435910  -5.180760 -20.091275  -5.313073   3.945246  48.410968  -0.000560   0.005013   0.696425  -6.888864   8.613861  -0.690669  -0.013282  -0.007683 -21.156949   0.551267  15.873304  38.504851   0.020595   0.000155  30.638438   6.559440  -2.458068 -44.611717  -0.002436   0.000654
 -2.360747   0.994518   4.025213   2.214236  -3.032697 -11.950369   2.517483   0.753403  12.368922   1.478972  -1.539996   1.426069  -4.433262  -1.785611  -2.514083   4.821386   1.354180 -14.674959   7.135482   9.917538  61.635540  -0.071082  34.947002   0.045137   2.223692   0.871964   3.513144   9.092604   4.695208  10.949815  12.929043 -11.358767 -57.917774  -0.092982 -34.315428  -0.071419   0.329327  -6.704236  -5.240435 -19.153160  -6.101658   6.160552  48.727819  -0.002164   0.003556   1.614578  -6.996513   8.930096  -0.335856  -0.012772  -0.007934 -19.508372   0.421197  17.789391  34.852041   0.025697   0.008180  34.318177   6.441514  -2.907445 -42.884929  -0.002591  -0.001165
 -2.361271   1.008078   4.030040   2.251962  -3.419548 -13.648877   1.000696   0.616583  14.483262   1.248257  -1.564681   1.938469  -3.988975  -1.863564  -2.925100   5.470949   1.381257 -16.273945   6.755002  10.101822  61.635524  -0.070950  36.021039   0.046128   2.178194   0.761487   3.521339   9.439622   5.328544  11.824548  13.136112 -11.297701 -58.285300  -0.102750 -35.598515  -0.078843   0.235025  -6.948459  -5.220023 -18.222148  -6.803658   8.257115  49.050057  -0.003490   0.002276   2.472804  -7.092277   9.226661  -0.012527  -0.012163  -0.008012 -17.967032   0.347158  19.588238  31.302288   0.029257   0.017584  38.036221   6.304721  -3.340136 -39.846730  -0.004029  -0.006272
 -2.360280   1.021507   4.033295   2.608159  -3.707109 -13.076500  -0.450556   0.686933  13.877010   1.013201  -1.751171   2.407759  -3.851824  -1.686585  -3.161295   5.820320   1.373267 -16.486686   6.537193  10.261487  61.397691  -0.064746  37.233081   0.045394   2.235453   0.555161   2.827090   9.790571   5.273162  12.002871  13.408701 -11.086023 -58.081482  -0.102340 -37.120128  -0.076937   0.125567  -6.601759  -4.307859 -17.669583  -7.187557   7.576540  47.647346   0.002392   0.011949   4.677034  -7.206066   9.859190   0.810090  -0.016366  -0.014788 -17.107319   0.605088  18.658717  28.786208   0.019603   0.029889  36.617105   6.325136  -3.684686 -34.744207   0.028991  -0.022433
 -2.359129   1.034476   4.035474   2.988077  -3.986383 -12.148180  -1.658426   0.849273  12.984173   0.842485  -1.945284   2.601904  -3.729346  -1.503926  -3.433150   6.132234   1.450196 -16.418320   6.263214  10.488642  61.377274  -0.054309  38.397019   0.040936   2.272837   0.534180   2.334771  10.044039   5.064107  11.988172  13.535517 -10.985784 -58.002627  -0.092124 -38.583923  -0.069064   0.010694  -6.388288  -3.470196 -17.274414  -7.445155   6.452272  45.708080   0.006576   0.024433   6.735928  -7.302762  10.448592   1.698065  -0.020139  -0.019933 -16.511105   0.881564  17.410285  26.606059   0.011613   0.036331  35.250256   6.338360  -4.009709 -29.927430   0.051605  -0.038719
 -2.358115   1.046835   4.036906   3.340294  -4.271342 -11.172152  -2.656561   1.057551  12.053840   0.761203  -2.130349   2.673654  -3.597968  -1.332993  -3.710779   6.418826   1.580695 -16.233344   5.967551  10.749796  61.466196  -0.043033  39.504406   0.034838   2.298726   0.640117   2.086947  10.241578   4.786042  11.835577  13.578181 -10.963489 -58.039766  -0.076755 -39.985380  -0.057878  -0.116618  -6.357595  -2.845677 -17.016159  -7.664592   5.260998  43.691003   0.008542   0.034851   8.649918  -7.376107  11.000894   2.503656  -0.022425  -0.022443 -16.031916   1.119304  16.225353  24.600616   0.006664   0.039221  33.975572   6.354976  -4.315647 -25.137921   0.063406  -0.053623
 -2.357296   1.058515   4.037823   3.657263  -4.550845 -10.214499  -3.486031   1.284566  11.129457   0.756208  -2.310554   2.677359  -3.458588  -1.175200  -3.979251   6.687624   1.732737 -15.992612   5.673411  11.019529  61.610058  -0.032542  40.547857   0.028451   2.319289   0.807696   1.998781  10.406146   4.476389  11.590441  13.574365 -10.990525 -58.155311  -0.059378 -41.314726  -0.045353  -0.248234  -6.449501  -2.412404 -16.865119  -7.868427   4.085369  41.733247   0.008885   0.042210  10.432702  -7.427833  11.519189   3.230720  -0.023485  -0.023147 -15.620690   1.314001  15.170225  22.726950   0.004169   0.039800  32.785934   6.376466  -4.602017 -20.357990   0.066392  -0.065944
 -2.356665   1.069481   4.038387   3.940786  -4.815796  -9.291328  -4.181288   1.514556  10.222685   0.809425  -2.489709   2.633214  -3.315143  -1.029814  -4.234846   6.944175   1.886091 -15.728833   5.394568  11.283192  61.780261  -0.023540  41.524820   0.022501   2.337180   0.992873   2.007236  10.549584   4.156262  11.288337  13.545449 -11.047505 -58.320209  -0.042056 -42.567738  -0.032874  -0.379132  -6.609420  -2.126027 -16.793802  -8.059105   2.947214  39.872071   0.008179   0.046694  12.094674  -7.460859  12.005353   3.888661  -0.023595  -0.022673 -15.256953   1.472880  14.247055  20.971785   0.003377   0.038839  31.675563   6.402166  -4.869533 -15.700689   0.062776  -0.074483
